<?xml version="1.0" encoding="UTF-8" standalone="no"?>
<svg
   id="Capa_1"
   enable-background="new 0 0 497 497"
   height="512"
   viewBox="0 0 497 497"
   width="512"
   version="1.1"
   sodipodi:docname="composegl.svg"
   inkscape:version="1.1.2 (0a00cf5339, 2022-02-04)"
   inkscape:export-filename="/home/fux/Schreibtisch/composegl.png"
   inkscape:export-xdpi="96"
   inkscape:export-ydpi="96"
   xmlns:inkscape="http://www.inkscape.org/namespaces/inkscape"
   xmlns:sodipodi="http://sodipodi.sourceforge.net/DTD/sodipodi-0.dtd"
   xmlns="http://www.w3.org/2000/svg"
   xmlns:svg="http://www.w3.org/2000/svg">
  <defs
     id="defs27" />
  <sodipodi:namedview
     id="namedview25"
     pagecolor="#ffffff"
     bordercolor="#666666"
     borderopacity="1.0"
     inkscape:pageshadow="2"
     inkscape:pageopacity="0.0"
     inkscape:pagecheckerboard="0"
     showgrid="false"
     inkscape:zoom="1.7050781"
     inkscape:cx="187.38144"
     inkscape:cy="211.7205"
     inkscape:window-width="2560"
     inkscape:window-height="1371"
     inkscape:window-x="3360"
     inkscape:window-y="641"
     inkscape:window-maximized="1"
     inkscape:current-layer="layer1" />
  <path
     d="m368.5 407h-48l-27 15 33 15h42z"
     fill="#ff9259"
     id="path2" />
  <path
     d="m128.5 407v30h198l-6-30z"
     fill="#ffb17b"
     id="path4" />
  <path
     d="m248.5 0c-8.284 0-15 6.716-15 15v45h30v-45c0-8.284-6.716-15-15-15z"
     fill="#ffb17b"
     id="path6" />
  <path
     d="m188.5 197h-30l-36 180v30l30-30z"
     fill="#ff9259"
     id="path8" />
  <path
     d="m122.5 377-22.206 111.029c-.928 4.641 2.622 8.971 7.354 8.971h14.703c3.575 0 6.653-2.523 7.354-6.029l22.795-113.971z"
     fill="#ffb17b"
     id="path10" />
  <path
     d="m308.5 197h30l36 180v30l-30-30z"
     fill="#ff9259"
     id="path12" />
  <path
     d="m374.5 377 22.206 111.029c.928 4.641-2.621 8.971-7.354 8.971h-14.703c-3.575 0-6.653-2.523-7.354-6.029l-22.795-113.971z"
     fill="#ffb17b"
     id="path14" />
  <path
     d="m428.5 30-110 151 110 151h22.5c4.142 0 7.5-3.358 7.5-7.5v-287c0-4.142-3.358-7.5-7.5-7.5z"
     fill="#bfebff"
     id="path16" />
  <path
     d="m38.5 37.5v287c0 4.142 3.358 7.5 7.5 7.5h382.5v-302h-382.5c-4.142 0-7.5 3.358-7.5 7.5z"
     fill="#dff5ff"
     id="path18" />
  <path
     d="m368.5 302-30 22.5 30 22.5h22.5c4.142 0 7.5-3.358 7.5-7.5v-30c0-4.142-3.358-7.5-7.5-7.5z"
     fill="#ff9259"
     id="path20" />
  <path
     d="m98.5 309.5v30c0 4.142 3.358 7.5 7.5 7.5h262.5v-45h-262.5c-4.142 0-7.5 3.358-7.5 7.5z"
     fill="#ffb17b"
     id="path22" />
  <g
     inkscape:groupmode="layer"
     id="layer1"
     inkscape:label="logo">
    <path
       fill="#ba2a8d"
       d="m 124.36397,212.89438 c -4.20251,1.79433 -8.45224,2.64428 -12.74918,2.64428 -6.75235,0 -12.843626,-1.18047 -18.273814,-3.54144 -5.382988,-2.36096 -9.96325,-5.61908 -13.693566,-9.72716 -3.730317,-4.15528 -6.563469,-8.97164 -8.546675,-14.59073 -1.983207,-5.57186 -2.97481,-11.61591 -2.97481,-18.03773 0,-6.61068 0.991603,-12.74918 2.97481,-18.41549 1.983206,-5.6663 4.816358,-10.62433 8.499455,-14.82684 3.683098,-4.20252 8.26336,-7.50788 13.646346,-9.91606 5.382978,-2.40818 11.474244,-3.58866 18.273814,-3.58866 4.53304,0 8.92442,0.70829 13.17415,2.03042 4.24973,1.36937 8.07448,3.39979 11.52149,6.04407 3.447,2.64428 6.23294,5.90242 8.49945,9.82162 2.21931,3.87198 3.58866,8.35781 4.10807,13.36304 h -18.55714 c -1.13326,-4.95801 -3.39979,-8.64112 -6.70513,-11.14374 -3.30534,-2.4554 -7.31898,-3.73031 -11.99367,-3.73031 -4.39139,0 -8.07448,0.84995 -11.14373,2.54984 -3.069242,1.69988 -5.524638,3.96642 -7.413404,6.79956 -1.888756,2.83316 -3.258122,6.09128 -4.155282,9.72716 -0.849947,3.63588 -1.322138,7.41342 -1.322138,11.28539 0,3.73032 0.424972,7.31897 1.322138,10.86042 0.89716,3.54144 2.266526,6.6579 4.155282,9.49105 1.888766,2.83316 4.391382,5.05246 7.413404,6.75235 3.06925,1.69989 6.75234,2.54984 11.14373,2.54984 6.42181,0 11.42704,-1.60546 14.92126,-4.86358 3.49422,-3.25812 5.57186,-7.98004 6.1385,-14.11854 h -19.50152 v -14.54351 h 37.06706 v 47.78582 h -12.32421 l -1.98321,-10.01046 c -3.447,4.4386 -7.31898,7.55507 -11.52148,9.34939 z"
       id="path10-3"
       style="stroke-width:0.472192" />
    <polygon
       fill="#ba2a8d"
       points="908.2,342.7 908.2,155.6 949.3,155.6 949.3,307.9 1040.5,307.9 1040.5,342.7 "
       id="polygon12"
       transform="matrix(0.47219198,0,0,0.47219198,-266.51656,51.687945)" />
    <g
       id="g22"
       transform="matrix(0.47219198,0,0,0.47219198,-266.51656,51.687945)">
      <polygon
         fill="#ba2a8d"
         points="1244.8,342.4 1102.8,342.4 1102.8,155.2 1242.7,155.2 1242.7,189.8 1143.9,189.8 1143.9,229.9 1234.6,229.9 1234.6,261.9 1143.9,261.9 1143.9,307.8 1244.8,307.8 "
         id="polygon18" />
      <path
         fill="#ba2a8d"
         d="m 1292.8,280.2 c 0,24.9 19.4,34.6 41.4,34.6 14.4,0 36.4,-4.2 36.4,-23.3 0,-20.2 -28,-23.6 -55.6,-30.9 -27.8,-7.3 -55.8,-18.1 -55.8,-53.2 0,-38.3 36.2,-56.6 70,-56.6 39.1,0 75,17 75,60.3 h -39.8 c -1.3,-22.5 -17.3,-28.3 -37,-28.3 -13.1,0 -28.3,5.5 -28.3,21.2 0,14.4 8.9,16.3 55.8,28.3 13.6,3.4 55.6,12.1 55.6,54.5 0,34.3 -27,60 -77.8,60 -41.4,0 -80.2,-20.4 -79.7,-66.6 z"
         id="path20-6" />
    </g>
    <line
       fill="#ba2a8d"
       stroke="#ba2a8d"
       stroke-width="5.49861"
       stroke-linecap="round"
       x1="238.96498"
       y1="100.2765"
       x2="238.96498"
       y2="238.91208"
       id="line24" />
    <g
       id="g34"
       transform="matrix(0.47219198,0,0,0.47219198,-266.51656,51.687945)">
      <path
         fill="#ba2a8d"
         d="m 1436,160.6 h -7.3 v 18.9 h -6.3 v -18.9 h -7.3 v -5.5 h 20.9 z"
         id="path30" />
      <path
         fill="#ba2a8d"
         d="m 1438.9,155.2 h 9.3 l 4.2,16.2 h 0.1 l 4.2,-16.2 h 9.3 v 24.4 h -6 V 161 h -0.1 l -5.1,18.5 h -4.8 l -5.1,-18.5 h -0.1 v 18.5 h -6 v -24.3 z"
         id="path32" />
    </g>
    <g
       id="g38"
       transform="matrix(0.47219198,0,0,0.47219198,-266.51656,51.687945)">
      <path
         fill="#ba2a8d"
         d="m 1003.8,172.5 c 0,3.1 -0.8,6.1 -2.4,8.8 -1.6,2.7 -3.7,4.9 -6.4,6.4 -2.7,1.6 -5.6,2.3 -8.8,2.3 -3.1,0 -6,-0.8 -8.8,-2.3 -2.7,-1.6 -4.9,-3.7 -6.4,-6.4 -1.6,-2.7 -2.4,-5.6 -2.4,-8.8 0,-3.1 0.8,-6 2.4,-8.8 1.6,-2.7 3.7,-4.9 6.4,-6.4 2.7,-1.6 5.6,-2.3 8.8,-2.3 3.1,0 6.1,0.8 8.8,2.3 2.7,1.6 4.9,3.7 6.4,6.4 1.6,2.8 2.4,5.7 2.4,8.8 z m -3.4,0 c 0,-3.9 -1.4,-7.2 -4.1,-10 -2.8,-2.8 -6.1,-4.1 -10,-4.1 -3.9,0 -7.2,1.4 -10,4.1 -2.8,2.8 -4.1,6.1 -4.1,10 0,3.9 1.4,7.2 4.1,10 2.8,2.8 6.1,4.1 10,4.1 3.9,0 7.2,-1.4 10,-4.1 2.7,-2.7 4.1,-6.1 4.1,-10 z m -22.1,-9.3 h 8.4 c 2.4,0 4.1,0.5 5.2,1.4 1.1,1 1.6,2.2 1.6,3.9 0,1.3 -0.4,2.3 -1.2,3.3 -0.8,0.9 -2.1,1.6 -3.8,2 0.7,0.3 1.2,0.6 1.6,0.9 0.5,0.4 1,1.1 1.5,1.9 0,0.1 1,1.9 3,5.4 H 989 c -1.8,-3.6 -3,-5.7 -3.6,-6.4 -0.6,-0.7 -1.2,-1 -1.8,-1 -0.1,0 -0.3,0 -0.6,0.1 v 7.4 h -4.7 z m 4.7,7.9 h 2 c 1.3,0 2.3,-0.2 2.9,-0.7 0.6,-0.4 0.8,-1 0.8,-1.7 0,-0.7 -0.3,-1.3 -0.8,-1.7 -0.5,-0.4 -1.4,-0.7 -2.7,-0.7 H 983 Z"
         id="path36" />
    </g>
  </g>
</svg>
